<svg width="232" height="54" viewBox="0 0 232 54" fill="none" xmlns="http://www.w3.org/2000/svg">
<rect width="232" height="54" fill="#CA7618"/>
<path d="M67.688 28.36C68.664 28.568 69.448 29.056 70.04 29.824C70.632 30.576 70.928 31.44 70.928 32.416C70.928 33.824 70.432 34.944 69.44 35.776C68.464 36.592 67.096 37 65.336 37H57.488V20.152H65.072C66.784 20.152 68.12 20.544 69.08 21.328C70.056 22.112 70.544 23.176 70.544 24.52C70.544 25.512 70.28 26.336 69.752 26.992C69.24 27.648 68.552 28.104 67.688 28.36ZM61.592 26.968H64.28C64.952 26.968 65.464 26.824 65.816 26.536C66.184 26.232 66.368 25.792 66.368 25.216C66.368 24.64 66.184 24.2 65.816 23.896C65.464 23.592 64.952 23.44 64.28 23.44H61.592V26.968ZM64.616 33.688C65.304 33.688 65.832 33.536 66.2 33.232C66.584 32.912 66.776 32.456 66.776 31.864C66.776 31.272 66.576 30.808 66.176 30.472C65.792 30.136 65.256 29.968 64.568 29.968H61.592V33.688H64.616ZM72.4923 30.28C72.4923 28.904 72.7483 27.696 73.2603 26.656C73.7883 25.616 74.5003 24.816 75.3963 24.256C76.2923 23.696 77.2923 23.416 78.3963 23.416C79.3403 23.416 80.1643 23.608 80.8683 23.992C81.5883 24.376 82.1403 24.88 82.5243 25.504V23.608H86.6283V37H82.5243V35.104C82.1243 35.728 81.5643 36.232 80.8443 36.616C80.1403 37 79.3163 37.192 78.3723 37.192C77.2843 37.192 76.2923 36.912 75.3963 36.352C74.5003 35.776 73.7883 34.968 73.2603 33.928C72.7483 32.872 72.4923 31.656 72.4923 30.28ZM82.5243 30.304C82.5243 29.28 82.2363 28.472 81.6603 27.88C81.1003 27.288 80.4123 26.992 79.5963 26.992C78.7803 26.992 78.0843 27.288 77.5083 27.88C76.9483 28.456 76.6683 29.256 76.6683 30.28C76.6683 31.304 76.9483 32.12 77.5083 32.728C78.0843 33.32 78.7803 33.616 79.5963 33.616C80.4123 33.616 81.1003 33.32 81.6603 32.728C82.2363 32.136 82.5243 31.328 82.5243 30.304ZM97.7814 37L93.7014 31.384V37H89.5974V19.24H93.7014V29.056L97.7574 23.608H102.821L97.2534 30.328L102.869 37H97.7814ZM117.057 30.088C117.057 30.472 117.033 30.872 116.985 31.288H107.697C107.761 32.12 108.025 32.76 108.489 33.208C108.969 33.64 109.553 33.856 110.241 33.856C111.265 33.856 111.977 33.424 112.377 32.56H116.745C116.521 33.44 116.113 34.232 115.521 34.936C114.945 35.64 114.217 36.192 113.337 36.592C112.457 36.992 111.473 37.192 110.385 37.192C109.073 37.192 107.905 36.912 106.881 36.352C105.857 35.792 105.057 34.992 104.481 33.952C103.905 32.912 103.617 31.696 103.617 30.304C103.617 28.912 103.897 27.696 104.457 26.656C105.033 25.616 105.833 24.816 106.857 24.256C107.881 23.696 109.057 23.416 110.385 23.416C111.681 23.416 112.833 23.688 113.841 24.232C114.849 24.776 115.633 25.552 116.193 26.56C116.769 27.568 117.057 28.744 117.057 30.088ZM112.857 29.008C112.857 28.304 112.617 27.744 112.137 27.328C111.657 26.912 111.057 26.704 110.337 26.704C109.649 26.704 109.065 26.904 108.585 27.304C108.121 27.704 107.833 28.272 107.721 29.008H112.857ZM123.326 25.84C123.806 25.104 124.406 24.528 125.126 24.112C125.846 23.68 126.646 23.464 127.526 23.464V27.808H126.398C125.374 27.808 124.606 28.032 124.094 28.48C123.582 28.912 123.326 29.68 123.326 30.784V37H119.222V23.608H123.326V25.84ZM143.168 23.608L134.768 43.36H130.352L133.424 36.544L127.976 23.608H132.56L135.656 31.984L138.728 23.608H143.168ZM155.834 37.168C154.602 37.168 153.498 36.968 152.522 36.568C151.546 36.168 150.762 35.576 150.17 34.792C149.594 34.008 149.29 33.064 149.258 31.96H153.626C153.69 32.584 153.906 33.064 154.274 33.4C154.642 33.72 155.122 33.88 155.714 33.88C156.322 33.88 156.802 33.744 157.154 33.472C157.506 33.184 157.682 32.792 157.682 32.296C157.682 31.88 157.538 31.536 157.25 31.264C156.978 30.992 156.634 30.768 156.218 30.592C155.818 30.416 155.242 30.216 154.49 29.992C153.402 29.656 152.514 29.32 151.826 28.984C151.138 28.648 150.546 28.152 150.05 27.496C149.554 26.84 149.306 25.984 149.306 24.928C149.306 23.36 149.874 22.136 151.01 21.256C152.146 20.36 153.626 19.912 155.45 19.912C157.306 19.912 158.802 20.36 159.938 21.256C161.074 22.136 161.682 23.368 161.762 24.952H157.322C157.29 24.408 157.09 23.984 156.722 23.68C156.354 23.36 155.882 23.2 155.306 23.2C154.81 23.2 154.41 23.336 154.106 23.608C153.802 23.864 153.65 24.24 153.65 24.736C153.65 25.28 153.906 25.704 154.418 26.008C154.93 26.312 155.73 26.64 156.818 26.992C157.906 27.36 158.786 27.712 159.458 28.048C160.146 28.384 160.738 28.872 161.234 29.512C161.73 30.152 161.978 30.976 161.978 31.984C161.978 32.944 161.73 33.816 161.234 34.6C160.754 35.384 160.05 36.008 159.122 36.472C158.194 36.936 157.098 37.168 155.834 37.168ZM171.968 33.52V37H169.88C168.392 37 167.232 36.64 166.4 35.92C165.568 35.184 165.152 33.992 165.152 32.344V27.016H163.52V23.608H165.152V20.344H169.256V23.608H171.944V27.016H169.256V32.392C169.256 32.792 169.352 33.08 169.544 33.256C169.736 33.432 170.056 33.52 170.504 33.52H171.968ZM187.478 23.608V37H183.374V35.176C182.958 35.768 182.39 36.248 181.67 36.616C180.966 36.968 180.182 37.144 179.318 37.144C178.294 37.144 177.39 36.92 176.606 36.472C175.822 36.008 175.214 35.344 174.782 34.48C174.35 33.616 174.134 32.6 174.134 31.432V23.608H178.214V30.88C178.214 31.776 178.446 32.472 178.91 32.968C179.374 33.464 179.998 33.712 180.782 33.712C181.582 33.712 182.214 33.464 182.678 32.968C183.142 32.472 183.374 31.776 183.374 30.88V23.608H187.478ZM189.61 30.28C189.61 28.904 189.866 27.696 190.378 26.656C190.906 25.616 191.618 24.816 192.514 24.256C193.41 23.696 194.41 23.416 195.514 23.416C196.394 23.416 197.194 23.6 197.914 23.968C198.65 24.336 199.226 24.832 199.642 25.456V19.24H203.746V37H199.642V35.08C199.258 35.72 198.706 36.232 197.986 36.616C197.282 37 196.458 37.192 195.514 37.192C194.41 37.192 193.41 36.912 192.514 36.352C191.618 35.776 190.906 34.968 190.378 33.928C189.866 32.872 189.61 31.656 189.61 30.28ZM199.642 30.304C199.642 29.28 199.354 28.472 198.778 27.88C198.218 27.288 197.53 26.992 196.714 26.992C195.898 26.992 195.202 27.288 194.626 27.88C194.066 28.456 193.786 29.256 193.786 30.28C193.786 31.304 194.066 32.12 194.626 32.728C195.202 33.32 195.898 33.616 196.714 33.616C197.53 33.616 198.218 33.32 198.778 32.728C199.354 32.136 199.642 31.328 199.642 30.304ZM208.779 22.216C208.059 22.216 207.467 22.008 207.003 21.592C206.555 21.16 206.331 20.632 206.331 20.008C206.331 19.368 206.555 18.84 207.003 18.424C207.467 17.992 208.059 17.776 208.779 17.776C209.483 17.776 210.059 17.992 210.507 18.424C210.971 18.84 211.203 19.368 211.203 20.008C211.203 20.632 210.971 21.16 210.507 21.592C210.059 22.008 209.483 22.216 208.779 22.216ZM210.819 23.608V37H206.715V23.608H210.819ZM219.889 37.192C218.577 37.192 217.393 36.912 216.337 36.352C215.297 35.792 214.473 34.992 213.865 33.952C213.273 32.912 212.977 31.696 212.977 30.304C212.977 28.928 213.281 27.72 213.889 26.68C214.497 25.624 215.329 24.816 216.385 24.256C217.441 23.696 218.625 23.416 219.937 23.416C221.249 23.416 222.433 23.696 223.489 24.256C224.545 24.816 225.377 25.624 225.985 26.68C226.593 27.72 226.897 28.928 226.897 30.304C226.897 31.68 226.585 32.896 225.961 33.952C225.353 34.992 224.513 35.792 223.441 36.352C222.385 36.912 221.201 37.192 219.889 37.192ZM219.889 33.64C220.673 33.64 221.337 33.352 221.881 32.776C222.441 32.2 222.721 31.376 222.721 30.304C222.721 29.232 222.449 28.408 221.905 27.832C221.377 27.256 220.721 26.968 219.937 26.968C219.137 26.968 218.473 27.256 217.945 27.832C217.417 28.392 217.153 29.216 217.153 30.304C217.153 31.376 217.409 32.2 217.921 32.776C218.449 33.352 219.105 33.64 219.889 33.64Z" fill="white"/>
<rect x="9.55933" y="6.95679" width="38.2369" height="39.7536" rx="8" fill="white"/>
<path fill-rule="evenodd" clip-rule="evenodd" d="M24.7738 14.381L25.0022 17.9169C25.0022 17.9169 23.9546 18.1272 21.847 18.5577C21.5946 18.5924 21.3375 18.5633 21.0996 18.4733C20.8618 18.3833 20.6511 18.2354 20.4873 18.0433C20.3236 17.8512 20.2121 17.6213 20.1633 17.3752C20.1145 17.1291 20.1301 16.8748 20.2086 16.6363L20.9168 14.3939C21.0883 13.8634 21.5316 13.4565 22.0757 13.3141L22.8746 13.1047C23.0856 13.0458 23.3073 13.0332 23.5238 13.0679C23.7404 13.1026 23.9465 13.1837 24.1277 13.3054C24.3089 13.4272 24.4607 13.5866 24.5724 13.7725C24.684 13.9584 24.7528 14.1661 24.7738 14.381ZM39.6832 31.8662C39.8934 31.9243 40.0883 32.0266 40.2543 32.1661C40.4204 32.3056 40.5536 32.4789 40.6449 32.6741C40.7362 32.8693 40.7832 33.0816 40.7829 33.2965C40.7825 33.5113 40.7347 33.7235 40.6428 33.9184L40.3048 34.6682C40.0679 35.1708 39.5836 35.5297 39.023 35.6039L36.6559 35.9008C36.4035 35.9354 36.1464 35.9064 35.9086 35.8164C35.6707 35.7264 35.46 35.5784 35.2963 35.3863C35.1325 35.1943 35.021 34.9644 34.9722 34.7183C34.9235 34.4722 34.939 34.2179 35.0175 33.9793C35.7919 32.0097 36.1843 31.0309 36.1843 31.0309L39.6832 31.8662ZM20.2821 26.1121C19.3601 26.6892 18.241 26.3036 18.0663 25.3427L17.5365 22.5264C17.3828 21.7119 18.0019 20.8528 18.8886 20.6732L25.9853 19.0698L27.8285 21.2315L20.2821 26.1121ZM27.1735 34.1942L33.358 27.7164L35.2012 29.878L32.3623 36.4992C32.0287 37.3273 31.0613 37.7782 30.273 37.4877L27.5466 36.4852C26.6377 36.151 26.4359 34.9875 27.1735 34.1942ZM28.7501 22.3123L32.4364 26.6355L24.7982 34.4571C24.1499 35.1357 23.073 35.1653 22.5303 34.5289L19.1511 30.5659C18.6084 29.9294 18.8353 28.9029 19.6168 28.3805L28.7501 22.3123Z" fill="#CA7618"/>
</svg>
