<svg width="238" height="57" viewBox="0 0 238 57" fill="none" xmlns="http://www.w3.org/2000/svg">
<rect width="238" height="57" fill="white"/>
<path d="M67.688 29.36C68.664 29.568 69.448 30.056 70.04 30.824C70.632 31.576 70.928 32.44 70.928 33.416C70.928 34.824 70.432 35.944 69.44 36.776C68.464 37.592 67.096 38 65.336 38H57.488V21.152H65.072C66.784 21.152 68.12 21.544 69.08 22.328C70.056 23.112 70.544 24.176 70.544 25.52C70.544 26.512 70.28 27.336 69.752 27.992C69.24 28.648 68.552 29.104 67.688 29.36ZM61.592 27.968H64.28C64.952 27.968 65.464 27.824 65.816 27.536C66.184 27.232 66.368 26.792 66.368 26.216C66.368 25.64 66.184 25.2 65.816 24.896C65.464 24.592 64.952 24.44 64.28 24.44H61.592V27.968ZM64.616 34.688C65.304 34.688 65.832 34.536 66.2 34.232C66.584 33.912 66.776 33.456 66.776 32.864C66.776 32.272 66.576 31.808 66.176 31.472C65.792 31.136 65.256 30.968 64.568 30.968H61.592V34.688H64.616ZM72.4923 31.28C72.4923 29.904 72.7483 28.696 73.2603 27.656C73.7883 26.616 74.5003 25.816 75.3963 25.256C76.2923 24.696 77.2923 24.416 78.3963 24.416C79.3403 24.416 80.1643 24.608 80.8683 24.992C81.5883 25.376 82.1403 25.88 82.5243 26.504V24.608H86.6283V38H82.5243V36.104C82.1243 36.728 81.5643 37.232 80.8443 37.616C80.1403 38 79.3163 38.192 78.3723 38.192C77.2843 38.192 76.2923 37.912 75.3963 37.352C74.5003 36.776 73.7883 35.968 73.2603 34.928C72.7483 33.872 72.4923 32.656 72.4923 31.28ZM82.5243 31.304C82.5243 30.28 82.2363 29.472 81.6603 28.88C81.1003 28.288 80.4123 27.992 79.5963 27.992C78.7803 27.992 78.0843 28.288 77.5083 28.88C76.9483 29.456 76.6683 30.256 76.6683 31.28C76.6683 32.304 76.9483 33.12 77.5083 33.728C78.0843 34.32 78.7803 34.616 79.5963 34.616C80.4123 34.616 81.1003 34.32 81.6603 33.728C82.2363 33.136 82.5243 32.328 82.5243 31.304ZM97.7814 38L93.7014 32.384V38H89.5974V20.24H93.7014V30.056L97.7574 24.608H102.821L97.2534 31.328L102.869 38H97.7814ZM117.057 31.088C117.057 31.472 117.033 31.872 116.985 32.288H107.697C107.761 33.12 108.025 33.76 108.489 34.208C108.969 34.64 109.553 34.856 110.241 34.856C111.265 34.856 111.977 34.424 112.377 33.56H116.745C116.521 34.44 116.113 35.232 115.521 35.936C114.945 36.64 114.217 37.192 113.337 37.592C112.457 37.992 111.473 38.192 110.385 38.192C109.073 38.192 107.905 37.912 106.881 37.352C105.857 36.792 105.057 35.992 104.481 34.952C103.905 33.912 103.617 32.696 103.617 31.304C103.617 29.912 103.897 28.696 104.457 27.656C105.033 26.616 105.833 25.816 106.857 25.256C107.881 24.696 109.057 24.416 110.385 24.416C111.681 24.416 112.833 24.688 113.841 25.232C114.849 25.776 115.633 26.552 116.193 27.56C116.769 28.568 117.057 29.744 117.057 31.088ZM112.857 30.008C112.857 29.304 112.617 28.744 112.137 28.328C111.657 27.912 111.057 27.704 110.337 27.704C109.649 27.704 109.065 27.904 108.585 28.304C108.121 28.704 107.833 29.272 107.721 30.008H112.857ZM123.326 26.84C123.806 26.104 124.406 25.528 125.126 25.112C125.846 24.68 126.646 24.464 127.526 24.464V28.808H126.398C125.374 28.808 124.606 29.032 124.094 29.48C123.582 29.912 123.326 30.68 123.326 31.784V38H119.222V24.608H123.326V26.84ZM143.168 24.608L134.768 44.36H130.352L133.424 37.544L127.976 24.608H132.56L135.656 32.984L138.728 24.608H143.168ZM155.834 38.168C154.602 38.168 153.498 37.968 152.522 37.568C151.546 37.168 150.762 36.576 150.17 35.792C149.594 35.008 149.29 34.064 149.258 32.96H153.626C153.69 33.584 153.906 34.064 154.274 34.4C154.642 34.72 155.122 34.88 155.714 34.88C156.322 34.88 156.802 34.744 157.154 34.472C157.506 34.184 157.682 33.792 157.682 33.296C157.682 32.88 157.538 32.536 157.25 32.264C156.978 31.992 156.634 31.768 156.218 31.592C155.818 31.416 155.242 31.216 154.49 30.992C153.402 30.656 152.514 30.32 151.826 29.984C151.138 29.648 150.546 29.152 150.05 28.496C149.554 27.84 149.306 26.984 149.306 25.928C149.306 24.36 149.874 23.136 151.01 22.256C152.146 21.36 153.626 20.912 155.45 20.912C157.306 20.912 158.802 21.36 159.938 22.256C161.074 23.136 161.682 24.368 161.762 25.952H157.322C157.29 25.408 157.09 24.984 156.722 24.68C156.354 24.36 155.882 24.2 155.306 24.2C154.81 24.2 154.41 24.336 154.106 24.608C153.802 24.864 153.65 25.24 153.65 25.736C153.65 26.28 153.906 26.704 154.418 27.008C154.93 27.312 155.73 27.64 156.818 27.992C157.906 28.36 158.786 28.712 159.458 29.048C160.146 29.384 160.738 29.872 161.234 30.512C161.73 31.152 161.978 31.976 161.978 32.984C161.978 33.944 161.73 34.816 161.234 35.6C160.754 36.384 160.05 37.008 159.122 37.472C158.194 37.936 157.098 38.168 155.834 38.168ZM171.968 34.52V38H169.88C168.392 38 167.232 37.64 166.4 36.92C165.568 36.184 165.152 34.992 165.152 33.344V28.016H163.52V24.608H165.152V21.344H169.256V24.608H171.944V28.016H169.256V33.392C169.256 33.792 169.352 34.08 169.544 34.256C169.736 34.432 170.056 34.52 170.504 34.52H171.968ZM187.478 24.608V38H183.374V36.176C182.958 36.768 182.39 37.248 181.67 37.616C180.966 37.968 180.182 38.144 179.318 38.144C178.294 38.144 177.39 37.92 176.606 37.472C175.822 37.008 175.214 36.344 174.782 35.48C174.35 34.616 174.134 33.6 174.134 32.432V24.608H178.214V31.88C178.214 32.776 178.446 33.472 178.91 33.968C179.374 34.464 179.998 34.712 180.782 34.712C181.582 34.712 182.214 34.464 182.678 33.968C183.142 33.472 183.374 32.776 183.374 31.88V24.608H187.478ZM189.61 31.28C189.61 29.904 189.866 28.696 190.378 27.656C190.906 26.616 191.618 25.816 192.514 25.256C193.41 24.696 194.41 24.416 195.514 24.416C196.394 24.416 197.194 24.6 197.914 24.968C198.65 25.336 199.226 25.832 199.642 26.456V20.24H203.746V38H199.642V36.08C199.258 36.72 198.706 37.232 197.986 37.616C197.282 38 196.458 38.192 195.514 38.192C194.41 38.192 193.41 37.912 192.514 37.352C191.618 36.776 190.906 35.968 190.378 34.928C189.866 33.872 189.61 32.656 189.61 31.28ZM199.642 31.304C199.642 30.28 199.354 29.472 198.778 28.88C198.218 28.288 197.53 27.992 196.714 27.992C195.898 27.992 195.202 28.288 194.626 28.88C194.066 29.456 193.786 30.256 193.786 31.28C193.786 32.304 194.066 33.12 194.626 33.728C195.202 34.32 195.898 34.616 196.714 34.616C197.53 34.616 198.218 34.32 198.778 33.728C199.354 33.136 199.642 32.328 199.642 31.304ZM208.779 23.216C208.059 23.216 207.467 23.008 207.003 22.592C206.555 22.16 206.331 21.632 206.331 21.008C206.331 20.368 206.555 19.84 207.003 19.424C207.467 18.992 208.059 18.776 208.779 18.776C209.483 18.776 210.059 18.992 210.507 19.424C210.971 19.84 211.203 20.368 211.203 21.008C211.203 21.632 210.971 22.16 210.507 22.592C210.059 23.008 209.483 23.216 208.779 23.216ZM210.819 24.608V38H206.715V24.608H210.819ZM219.889 38.192C218.577 38.192 217.393 37.912 216.337 37.352C215.297 36.792 214.473 35.992 213.865 34.952C213.273 33.912 212.977 32.696 212.977 31.304C212.977 29.928 213.281 28.72 213.889 27.68C214.497 26.624 215.329 25.816 216.385 25.256C217.441 24.696 218.625 24.416 219.937 24.416C221.249 24.416 222.433 24.696 223.489 25.256C224.545 25.816 225.377 26.624 225.985 27.68C226.593 28.72 226.897 29.928 226.897 31.304C226.897 32.68 226.585 33.896 225.961 34.952C225.353 35.992 224.513 36.792 223.441 37.352C222.385 37.912 221.201 38.192 219.889 38.192ZM219.889 34.64C220.673 34.64 221.337 34.352 221.881 33.776C222.441 33.2 222.721 32.376 222.721 31.304C222.721 30.232 222.449 29.408 221.905 28.832C221.377 28.256 220.721 27.968 219.937 27.968C219.137 27.968 218.473 28.256 217.945 28.832C217.417 29.392 217.153 30.216 217.153 31.304C217.153 32.376 217.409 33.2 217.921 33.776C218.449 34.352 219.105 34.64 219.889 34.64Z" fill="#4A4646"/>
<rect x="10.0001" y="6.95688" width="40" height="39.7536" rx="8" fill="#CA7818"/>
<path fill-rule="evenodd" clip-rule="evenodd" d="M25.9186 15.1386L26.1576 18.8747C26.1576 18.8747 25.0615 19.0969 22.8565 19.5518C22.5925 19.5884 22.3234 19.5577 22.0746 19.4626C21.8258 19.3675 21.6054 19.2112 21.434 19.0082C21.2627 18.8053 21.146 18.5624 21.095 18.3023C21.044 18.0423 21.0603 17.7736 21.1424 17.5216L21.8833 15.1523C22.0628 14.5918 22.5265 14.1618 23.0958 14.0114L23.9315 13.7901C24.1524 13.7279 24.3843 13.7146 24.6108 13.7512C24.8374 13.7879 25.0531 13.8736 25.2426 14.0022C25.4322 14.1309 25.591 14.2993 25.7078 14.4957C25.8246 14.6921 25.8966 14.9116 25.9186 15.1386ZM41.5169 33.6135C41.7368 33.6748 41.9407 33.783 42.1144 33.9303C42.2881 34.0777 42.4276 34.2609 42.523 34.4671C42.6185 34.6733 42.6678 34.8977 42.6674 35.1247C42.667 35.3517 42.617 35.5759 42.5209 35.7818L42.1672 36.5741C41.9193 37.1051 41.4128 37.4843 40.8262 37.5626L38.3497 37.8764C38.0857 37.913 37.8167 37.8823 37.5678 37.7872C37.319 37.6921 37.0986 37.5358 36.9273 37.3328C36.7559 37.1299 36.6392 36.887 36.5882 36.6269C36.5372 36.3669 36.5535 36.0983 36.6356 35.8462C37.4458 33.7651 37.8563 32.7308 37.8563 32.7308L41.5169 33.6135ZM21.2193 27.5337C20.2547 28.1435 19.0839 27.736 18.9011 26.7208L18.3468 23.745C18.186 22.8845 18.8337 21.9767 19.7613 21.787L27.186 20.0928L29.1144 22.3768L21.2193 27.5337ZM28.4292 36.0732L34.8995 29.2287L36.8278 31.5127L33.8578 38.5087C33.5087 39.3837 32.4966 39.86 31.6719 39.5532L28.8194 38.4939C27.8686 38.1408 27.6574 36.9114 28.4292 36.0732ZM30.0786 23.5188L33.9353 28.0868L25.9441 36.351C25.2658 37.068 24.1392 37.0993 23.5714 36.4268L20.036 32.2395C19.4682 31.567 19.7057 30.4825 20.5232 29.9304L30.0786 23.5188Z" fill="white"/>
</svg>
