<svg width="238" height="57" viewBox="0 0 238 57" fill="none" xmlns="http://www.w3.org/2000/svg">
<path d="M68.688 27.36C69.664 27.568 70.448 28.056 71.04 28.824C71.632 29.576 71.928 30.44 71.928 31.416C71.928 32.824 71.432 33.944 70.44 34.776C69.464 35.592 68.096 36 66.336 36H58.488V19.152H66.072C67.784 19.152 69.12 19.544 70.08 20.328C71.056 21.112 71.544 22.176 71.544 23.52C71.544 24.512 71.28 25.336 70.752 25.992C70.24 26.648 69.552 27.104 68.688 27.36ZM62.592 25.968H65.28C65.952 25.968 66.464 25.824 66.816 25.536C67.184 25.232 67.368 24.792 67.368 24.216C67.368 23.64 67.184 23.2 66.816 22.896C66.464 22.592 65.952 22.44 65.28 22.44H62.592V25.968ZM65.616 32.688C66.304 32.688 66.832 32.536 67.2 32.232C67.584 31.912 67.776 31.456 67.776 30.864C67.776 30.272 67.576 29.808 67.176 29.472C66.792 29.136 66.256 28.968 65.568 28.968H62.592V32.688H65.616ZM73.4923 29.28C73.4923 27.904 73.7483 26.696 74.2603 25.656C74.7883 24.616 75.5003 23.816 76.3963 23.256C77.2923 22.696 78.2923 22.416 79.3963 22.416C80.3403 22.416 81.1643 22.608 81.8683 22.992C82.5883 23.376 83.1403 23.88 83.5243 24.504V22.608H87.6283V36H83.5243V34.104C83.1243 34.728 82.5643 35.232 81.8443 35.616C81.1403 36 80.3163 36.192 79.3723 36.192C78.2843 36.192 77.2923 35.912 76.3963 35.352C75.5003 34.776 74.7883 33.968 74.2603 32.928C73.7483 31.872 73.4923 30.656 73.4923 29.28ZM83.5243 29.304C83.5243 28.28 83.2363 27.472 82.6603 26.88C82.1003 26.288 81.4123 25.992 80.5963 25.992C79.7803 25.992 79.0843 26.288 78.5083 26.88C77.9483 27.456 77.6683 28.256 77.6683 29.28C77.6683 30.304 77.9483 31.12 78.5083 31.728C79.0843 32.32 79.7803 32.616 80.5963 32.616C81.4123 32.616 82.1003 32.32 82.6603 31.728C83.2363 31.136 83.5243 30.328 83.5243 29.304ZM98.7814 36L94.7014 30.384V36H90.5974V18.24H94.7014V28.056L98.7574 22.608H103.821L98.2534 29.328L103.869 36H98.7814ZM118.057 29.088C118.057 29.472 118.033 29.872 117.985 30.288H108.697C108.761 31.12 109.025 31.76 109.489 32.208C109.969 32.64 110.553 32.856 111.241 32.856C112.265 32.856 112.977 32.424 113.377 31.56H117.745C117.521 32.44 117.113 33.232 116.521 33.936C115.945 34.64 115.217 35.192 114.337 35.592C113.457 35.992 112.473 36.192 111.385 36.192C110.073 36.192 108.905 35.912 107.881 35.352C106.857 34.792 106.057 33.992 105.481 32.952C104.905 31.912 104.617 30.696 104.617 29.304C104.617 27.912 104.897 26.696 105.457 25.656C106.033 24.616 106.833 23.816 107.857 23.256C108.881 22.696 110.057 22.416 111.385 22.416C112.681 22.416 113.833 22.688 114.841 23.232C115.849 23.776 116.633 24.552 117.193 25.56C117.769 26.568 118.057 27.744 118.057 29.088ZM113.857 28.008C113.857 27.304 113.617 26.744 113.137 26.328C112.657 25.912 112.057 25.704 111.337 25.704C110.649 25.704 110.065 25.904 109.585 26.304C109.121 26.704 108.833 27.272 108.721 28.008H113.857ZM124.326 24.84C124.806 24.104 125.406 23.528 126.126 23.112C126.846 22.68 127.646 22.464 128.526 22.464V26.808H127.398C126.374 26.808 125.606 27.032 125.094 27.48C124.582 27.912 124.326 28.68 124.326 29.784V36H120.222V22.608H124.326V24.84ZM144.168 22.608L135.768 42.36H131.352L134.424 35.544L128.976 22.608H133.56L136.656 30.984L139.728 22.608H144.168ZM156.834 36.168C155.602 36.168 154.498 35.968 153.522 35.568C152.546 35.168 151.762 34.576 151.17 33.792C150.594 33.008 150.29 32.064 150.258 30.96H154.626C154.69 31.584 154.906 32.064 155.274 32.4C155.642 32.72 156.122 32.88 156.714 32.88C157.322 32.88 157.802 32.744 158.154 32.472C158.506 32.184 158.682 31.792 158.682 31.296C158.682 30.88 158.538 30.536 158.25 30.264C157.978 29.992 157.634 29.768 157.218 29.592C156.818 29.416 156.242 29.216 155.49 28.992C154.402 28.656 153.514 28.32 152.826 27.984C152.138 27.648 151.546 27.152 151.05 26.496C150.554 25.84 150.306 24.984 150.306 23.928C150.306 22.36 150.874 21.136 152.01 20.256C153.146 19.36 154.626 18.912 156.45 18.912C158.306 18.912 159.802 19.36 160.938 20.256C162.074 21.136 162.682 22.368 162.762 23.952H158.322C158.29 23.408 158.09 22.984 157.722 22.68C157.354 22.36 156.882 22.2 156.306 22.2C155.81 22.2 155.41 22.336 155.106 22.608C154.802 22.864 154.65 23.24 154.65 23.736C154.65 24.28 154.906 24.704 155.418 25.008C155.93 25.312 156.73 25.64 157.818 25.992C158.906 26.36 159.786 26.712 160.458 27.048C161.146 27.384 161.738 27.872 162.234 28.512C162.73 29.152 162.978 29.976 162.978 30.984C162.978 31.944 162.73 32.816 162.234 33.6C161.754 34.384 161.05 35.008 160.122 35.472C159.194 35.936 158.098 36.168 156.834 36.168ZM172.968 32.52V36H170.88C169.392 36 168.232 35.64 167.4 34.92C166.568 34.184 166.152 32.992 166.152 31.344V26.016H164.52V22.608H166.152V19.344H170.256V22.608H172.944V26.016H170.256V31.392C170.256 31.792 170.352 32.08 170.544 32.256C170.736 32.432 171.056 32.52 171.504 32.52H172.968ZM188.478 22.608V36H184.374V34.176C183.958 34.768 183.39 35.248 182.67 35.616C181.966 35.968 181.182 36.144 180.318 36.144C179.294 36.144 178.39 35.92 177.606 35.472C176.822 35.008 176.214 34.344 175.782 33.48C175.35 32.616 175.134 31.6 175.134 30.432V22.608H179.214V29.88C179.214 30.776 179.446 31.472 179.91 31.968C180.374 32.464 180.998 32.712 181.782 32.712C182.582 32.712 183.214 32.464 183.678 31.968C184.142 31.472 184.374 30.776 184.374 29.88V22.608H188.478ZM190.61 29.28C190.61 27.904 190.866 26.696 191.378 25.656C191.906 24.616 192.618 23.816 193.514 23.256C194.41 22.696 195.41 22.416 196.514 22.416C197.394 22.416 198.194 22.6 198.914 22.968C199.65 23.336 200.226 23.832 200.642 24.456V18.24H204.746V36H200.642V34.08C200.258 34.72 199.706 35.232 198.986 35.616C198.282 36 197.458 36.192 196.514 36.192C195.41 36.192 194.41 35.912 193.514 35.352C192.618 34.776 191.906 33.968 191.378 32.928C190.866 31.872 190.61 30.656 190.61 29.28ZM200.642 29.304C200.642 28.28 200.354 27.472 199.778 26.88C199.218 26.288 198.53 25.992 197.714 25.992C196.898 25.992 196.202 26.288 195.626 26.88C195.066 27.456 194.786 28.256 194.786 29.28C194.786 30.304 195.066 31.12 195.626 31.728C196.202 32.32 196.898 32.616 197.714 32.616C198.53 32.616 199.218 32.32 199.778 31.728C200.354 31.136 200.642 30.328 200.642 29.304ZM209.779 21.216C209.059 21.216 208.467 21.008 208.003 20.592C207.555 20.16 207.331 19.632 207.331 19.008C207.331 18.368 207.555 17.84 208.003 17.424C208.467 16.992 209.059 16.776 209.779 16.776C210.483 16.776 211.059 16.992 211.507 17.424C211.971 17.84 212.203 18.368 212.203 19.008C212.203 19.632 211.971 20.16 211.507 20.592C211.059 21.008 210.483 21.216 209.779 21.216ZM211.819 22.608V36H207.715V22.608H211.819ZM220.889 36.192C219.577 36.192 218.393 35.912 217.337 35.352C216.297 34.792 215.473 33.992 214.865 32.952C214.273 31.912 213.977 30.696 213.977 29.304C213.977 27.928 214.281 26.72 214.889 25.68C215.497 24.624 216.329 23.816 217.385 23.256C218.441 22.696 219.625 22.416 220.937 22.416C222.249 22.416 223.433 22.696 224.489 23.256C225.545 23.816 226.377 24.624 226.985 25.68C227.593 26.72 227.897 27.928 227.897 29.304C227.897 30.68 227.585 31.896 226.961 32.952C226.353 33.992 225.513 34.792 224.441 35.352C223.385 35.912 222.201 36.192 220.889 36.192ZM220.889 32.64C221.673 32.64 222.337 32.352 222.881 31.776C223.441 31.2 223.721 30.376 223.721 29.304C223.721 28.232 223.449 27.408 222.905 26.832C222.377 26.256 221.721 25.968 220.937 25.968C220.137 25.968 219.473 26.256 218.945 26.832C218.417 27.392 218.153 28.216 218.153 29.304C218.153 30.376 218.409 31.2 218.921 31.776C219.449 32.352 220.105 32.64 220.889 32.64Z" fill="#4A4646"/>
<rect x="10" y="6" width="40" height="40" rx="8" fill="#CA7818"/>
<path fill-rule="evenodd" clip-rule="evenodd" d="M25.9184 14.2325L26.1574 17.9917C26.1574 17.9917 25.0613 18.2152 22.8563 18.673C22.5923 18.7098 22.3232 18.6789 22.0744 18.5832C21.8256 18.4876 21.6052 18.3302 21.4338 18.126C21.2625 17.9218 21.1458 17.6774 21.0948 17.4158C21.0438 17.1541 21.0601 16.8838 21.1422 16.6302L21.8831 14.2462C22.0626 13.6822 22.5263 13.2496 23.0956 13.0983L23.9314 12.8756C24.1522 12.813 24.3841 12.7996 24.6106 12.8365C24.8372 12.8734 25.0529 12.9596 25.2424 13.089C25.432 13.2184 25.5908 13.388 25.7076 13.5856C25.8244 13.7832 25.8964 14.004 25.9184 14.2325ZM41.5167 32.8218C41.7366 32.8836 41.9405 32.9924 42.1142 33.1407C42.288 33.289 42.4274 33.4732 42.5229 33.6807C42.6183 33.8882 42.6676 34.114 42.6672 34.3424C42.6669 34.5708 42.6169 34.7964 42.5207 35.0036L42.167 35.8008C41.9192 36.3351 41.4126 36.7167 40.826 36.7955L38.3495 37.1112C38.0855 37.148 37.8165 37.1171 37.5677 37.0214C37.3189 36.9258 37.0984 36.7684 36.9271 36.5642C36.7557 36.36 36.6391 36.1156 36.5881 35.854C36.537 35.5923 36.5534 35.322 36.6354 35.0684C37.4456 32.9744 37.8561 31.9337 37.8561 31.9337L41.5167 32.8218ZM21.2191 26.7044C20.2545 27.3179 19.0837 26.9079 18.901 25.8864L18.3466 22.8922C18.1858 22.0263 18.8335 21.1129 19.7612 20.922L27.1858 19.2174L29.1142 21.5155L21.2191 26.7044ZM28.429 35.2968L34.8993 28.4099L36.8276 30.7081L33.8576 37.7474C33.5085 38.6278 32.4965 39.1071 31.6717 38.7983L28.8193 37.7325C27.8684 37.3772 27.6572 36.1402 28.429 35.2968ZM30.0784 22.6646L33.9351 27.2609L25.9439 35.5763C25.2656 36.2977 24.139 36.3293 23.5712 35.6526L20.0359 31.4394C19.4681 30.7627 19.7055 29.6714 20.5231 29.116L30.0784 22.6646Z" fill="white"/>
</svg>
