<svg width="57" height="57" viewBox="0 0 57 57" fill="none" xmlns="http://www.w3.org/2000/svg">
<rect x="10" y="6" width="40" height="40" rx="8" fill="#CA7818"/>
<path fill-rule="evenodd" clip-rule="evenodd" d="M25.9184 14.2325L26.1574 17.9917C26.1574 17.9917 25.0613 18.2152 22.8563 18.673C22.5923 18.7098 22.3232 18.6789 22.0744 18.5832C21.8256 18.4876 21.6052 18.3302 21.4338 18.126C21.2625 17.9218 21.1458 17.6774 21.0948 17.4158C21.0438 17.1541 21.0601 16.8838 21.1422 16.6302L21.8831 14.2462C22.0626 13.6822 22.5263 13.2496 23.0956 13.0983L23.9314 12.8756C24.1522 12.813 24.3841 12.7996 24.6106 12.8365C24.8372 12.8734 25.0529 12.9596 25.2424 13.089C25.432 13.2184 25.5908 13.388 25.7076 13.5856C25.8244 13.7832 25.8964 14.004 25.9184 14.2325ZM41.5167 32.8218C41.7366 32.8836 41.9405 32.9924 42.1142 33.1407C42.288 33.289 42.4274 33.4732 42.5229 33.6807C42.6183 33.8882 42.6676 34.114 42.6672 34.3424C42.6669 34.5708 42.6169 34.7964 42.5207 35.0036L42.167 35.8008C41.9192 36.3351 41.4126 36.7167 40.826 36.7955L38.3495 37.1112C38.0855 37.148 37.8165 37.1171 37.5677 37.0214C37.3189 36.9258 37.0984 36.7684 36.9271 36.5642C36.7557 36.36 36.6391 36.1156 36.5881 35.854C36.537 35.5923 36.5534 35.322 36.6354 35.0684C37.4456 32.9744 37.8561 31.9337 37.8561 31.9337L41.5167 32.8218ZM21.2191 26.7044C20.2545 27.3179 19.0837 26.9079 18.901 25.8864L18.3466 22.8922C18.1858 22.0263 18.8335 21.1129 19.7612 20.922L27.1858 19.2174L29.1142 21.5155L21.2191 26.7044ZM28.429 35.2968L34.8993 28.4099L36.8276 30.7081L33.8576 37.7474C33.5085 38.6278 32.4965 39.1071 31.6717 38.7983L28.8193 37.7325C27.8684 37.3772 27.6572 36.1402 28.429 35.2968ZM30.0784 22.6646L33.9351 27.2609L25.9439 35.5763C25.2656 36.2977 24.139 36.3293 23.5712 35.6526L20.0359 31.4394C19.4681 30.7627 19.7055 29.6714 20.5231 29.116L30.0784 22.6646Z" fill="white"/>
</svg>
